<?xml version="1.0" encoding="UTF-8"?>
<svg id="Calque_2" data-name="Calque 2" xmlns="http://www.w3.org/2000/svg" viewBox="0 0 1094.64 2409.02">
  <defs>
    <style>
      .cls-1 {
        fill: #1d70b7;
        stroke: #1d70b7;
        stroke-miterlimit: 10;
      }
    </style>
  </defs>
  <g id="Calque_1-2" data-name="Calque 1">
    <g>
      <polygon class="cls-1" points="867.21 1656.89 784.24 1656.89 784.24 2055.4 659.5 2055.4 659.5 2400 784.24 2400 794.43 2400 867.21 2400 1078.5 2400 1081.5 2400 1081.5 1922.23 867.21 1922.23 867.21 1656.89"/>
      <polygon class="cls-1" points="1081.5 495.14 915.78 495.14 915.78 692 867.92 692 867.92 992.3 1082.02 992.3 1082.02 692 1081.5 692 1081.5 495.14"/>
      <polygon class="cls-1" points="1 2062.44 1 2284.77 1 2363.4 1 2404.44 18.9 2404.44 19.04 2404.75 151.97 2408.5 150.2 2404.44 161.61 2404.44 161.61 2284.77 98 2284.77 1 2062.44"/>
      <polygon class="cls-1" points="1052.08 .5 789.5 .5 .5 .5 .5 142.97 .5 226.07 .5 488 1 488 1 574.52 128.04 488 519.5 488 519.5 277 1094.14 277 1094.14 226.07 1094.14 142.97 1094.14 .5 1052.08 .5"/>
    </g>
  </g>
</svg>