<?xml version="1.0" encoding="UTF-8"?>
<svg id="Calque_6" data-name="Calque 6" xmlns="http://www.w3.org/2000/svg" viewBox="0 0 141.82 142.35">
  <defs>
    <style>
      .cls-1 {
        fill: #fff;
      }

      .cls-2 {
        fill: #3c598a;
      }
    </style>
  </defs>
  <g>
    <path class="cls-2" d="m70.95,11.47c-32.83,0-59.54,26.71-59.54,59.54s26.71,59.54,59.54,59.54,59.54-26.71,59.54-59.54S103.79,11.47,70.95,11.47Z"/>
    <path class="cls-2" d="m70.95.24C31.86.24.18,31.93.18,71.02s31.69,70.78,70.78,70.78,70.78-31.69,70.78-70.78S110.04.24,70.95.24Zm0,134.37c-35.06,0-63.59-28.52-63.59-63.59S35.89,7.43,70.95,7.43s63.59,28.53,63.59,63.59-28.52,63.59-63.59,63.59Z"/>
  </g>
  <path class="cls-1" d="m101.29,109.78h-5.53v-2.02h5.53v2.02Zm-7.55,0h-8.09v-2.02h8.09v2.02Zm-10.11,0h-8.09v-2.02h8.09v2.02Zm-10.11,0h-8.09v-2.02h8.09v2.02Zm-10.11,0h-8.09v-2.02h8.09v2.02Zm-10.11,0h-4.24c-1.42,0-2.8-.24-4.11-.71l.68-1.9c1.1.39,2.25.59,3.44.59h4.24v2.02Zm-10.35-1.63c-2.58-1.48-4.53-3.84-5.51-6.64l1.91-.66c.81,2.34,2.44,4.31,4.6,5.55l-1.01,1.75Zm-6.04-8.78c-.09-.61-.14-1.25-.14-1.89,0-2.46.61-4.66,1.77-6.57l1.73,1.05c-.97,1.6-1.48,3.44-1.48,5.32,0,.75.04,1.27.12,1.79l-2,.31Zm4.45-8.89l-1.52-1.34c1.97-2.23,4.67-3.67,7.61-4.05l.26,2.01c-2.45.32-4.71,1.52-6.36,3.39Zm28.58-3.47l-.11-2.02c2.56,0,4.93-.87,6.78-2.46l1.32,1.54c-2.22,1.9-5.06,2.94-7.98,2.94Zm-2.13,0h-8.09v-2.02h8.09v2.02Zm-10.11,0h-8.09v-2.02h8.09v2.02Zm21.77-4.52l-1.57-1.28c1.49-1.83,2.31-4.14,2.31-6.5l1.63-.29.39.04c0,3.07-.98,5.84-2.77,8.02Zm.55-9.95c-.47-2.43-1.81-4.61-3.77-6.14l1.24-1.6c2.35,1.83,3.95,4.44,4.52,7.35l-1.99.39Zm-5.31-7.14c-1.46-.76-3.11-1.17-4.76-1.17h-2.65v-2.02h2.65c1.98,0,3.95.48,5.7,1.4l-.94,1.79Zm-9.44-1.17h-8.09v-2.02h8.09v2.02Zm-10.11,0h-8.09v-2.02h8.09v2.02Z"/>
  <path class="cls-1" d="m47.06,29.94c-5.58,0-10.11,4.53-10.11,10.11s3.08,13.38,10.11,24.19c8.39-14.09,10.11-18.61,10.11-24.19s-4.53-10.11-10.11-10.11Zm.06,15.47c-2.37,0-4.3-1.92-4.3-4.3s1.92-4.3,4.3-4.3,4.3,1.92,4.3,4.3-1.92,4.3-4.3,4.3Z"/>
  <path class="cls-1" d="m101.29,64.24c-7.41,0-13.42,6.01-13.42,13.42s4.09,17.76,13.42,32.11c11.13-18.71,13.42-24.7,13.42-32.11s-6.01-13.42-13.42-13.42Zm0,21.57c-3.74,0-6.77-3.03-6.77-6.77s3.03-6.77,6.77-6.77,6.77,3.03,6.77,6.77-3.03,6.77-6.77,6.77Z"/>
</svg>