<?xml version="1.0" encoding="UTF-8"?>
<svg id="Calque_5" data-name="Calque 5" xmlns="http://www.w3.org/2000/svg" xmlns:xlink="http://www.w3.org/1999/xlink" viewBox="0 0 141.82 142.35">
  <defs>
    <style>
      .cls-1 {
        fill: #fff;
      }

      .cls-2 {
        fill: url(#Dégradé_sans_nom_10-2);
      }

      .cls-3 {
        fill: url(#Dégradé_sans_nom_10);
      }
    </style>
    <linearGradient id="Dégradé_sans_nom_10" data-name="Dégradé sans nom 10" x1="100.74" y1="122.42" x2="41.2" y2="19.29" gradientUnits="userSpaceOnUse">
      <stop offset="0" stop-color="#e8398d"/>
      <stop offset=".5" stop-color="#ed6f1e"/>
      <stop offset="1" stop-color="#ffe604"/>
    </linearGradient>
    <linearGradient id="Dégradé_sans_nom_10-2" data-name="Dégradé sans nom 10" x1="106.37" y1="132.17" x2="35.57" y2="9.54" xlink:href="#Dégradé_sans_nom_10"/>
  </defs>
  <g>
    <path class="cls-3" d="m70.97,11.3c-32.84,0-59.55,26.72-59.55,59.56s26.72,59.55,59.55,59.55,59.55-26.72,59.55-59.55S103.8,11.3,70.97,11.3Z"/>
    <path class="cls-2" d="m70.97.06C31.87.06.18,31.76.18,70.85s31.69,70.79,70.79,70.79,70.79-31.69,70.79-70.79S110.06.06,70.97.06Zm0,134.39c-35.07,0-63.6-28.53-63.6-63.6S35.9,7.25,70.97,7.25s63.6,28.53,63.6,63.6-28.53,63.6-63.6,63.6Z"/>
  </g>
  <path class="cls-1" d="m101.31,109.62h-5.53v-2.02h5.53v2.02Zm-7.55,0h-8.09v-2.02h8.09v2.02Zm-10.11,0h-8.09v-2.02h8.09v2.02Zm-10.11,0h-8.09v-2.02h8.09v2.02Zm-10.11,0h-8.09v-2.02h8.09v2.02Zm-10.11,0h-4.24c-1.42,0-2.8-.24-4.11-.71l.68-1.9c1.1.39,2.25.59,3.44.59h4.24v2.02Zm-10.35-1.63c-2.58-1.48-4.53-3.84-5.51-6.64l1.91-.66c.81,2.34,2.45,4.31,4.6,5.55l-1.01,1.75Zm-6.04-8.78c-.09-.61-.14-1.25-.14-1.89,0-2.46.61-4.66,1.77-6.57l1.73,1.05c-.97,1.6-1.48,3.44-1.48,5.32,0,.75.04,1.27.12,1.79l-2,.31Zm4.45-8.89l-1.52-1.34c1.97-2.23,4.68-3.67,7.61-4.06l.26,2.01c-2.45.32-4.71,1.52-6.36,3.39Zm28.58-3.47l-.11-2.02c2.56,0,4.93-.87,6.78-2.46l1.32,1.54c-2.22,1.9-5.06,2.94-7.98,2.94Zm-2.14,0h-8.09v-2.02h8.09v2.02Zm-10.11,0h-8.09v-2.02h8.09v2.02Zm21.77-4.52l-1.57-1.28c1.49-1.83,2.31-4.14,2.31-6.5l1.63-.29.39.04c0,3.08-.98,5.84-2.77,8.03Zm.56-9.95c-.47-2.43-1.81-4.61-3.77-6.14l1.24-1.6c2.35,1.83,3.95,4.44,4.52,7.35l-1.99.39Zm-5.32-7.14c-1.46-.76-3.11-1.17-4.76-1.17h-2.65v-2.02h2.65c1.98,0,3.95.48,5.7,1.4l-.94,1.79Zm-9.44-1.17h-8.09v-2.02h8.09v2.02Zm-10.11,0h-8.09v-2.02h8.09v2.02Z"/>
  <path class="cls-1" d="m47.07,29.77c-5.59,0-10.11,4.53-10.11,10.11s3.08,13.38,10.11,24.2c8.39-14.09,10.11-18.61,10.11-24.2s-4.53-10.11-10.11-10.11Zm.06,15.47c-2.37,0-4.3-1.92-4.3-4.3s1.92-4.3,4.3-4.3,4.3,1.92,4.3,4.3-1.92,4.3-4.3,4.3Z"/>
  <path class="cls-1" d="m101.31,64.07c-7.41,0-13.42,6.01-13.42,13.42s4.09,17.76,13.42,32.12c11.13-18.71,13.42-24.71,13.42-32.12s-6.01-13.42-13.42-13.42Zm0,21.58c-3.74,0-6.77-3.03-6.77-6.77s3.03-6.77,6.77-6.77,6.77,3.03,6.77,6.77-3.03,6.77-6.77,6.77Z"/>
</svg>