<?xml version="1.0" encoding="UTF-8"?>
<svg id="Calque_2" data-name="Calque 2" xmlns="http://www.w3.org/2000/svg" viewBox="0 0 141.82 142.35">
  <defs>
    <style>
      .cls-1 {
        fill: #3c598a;
      }
    </style>
  </defs>
  <g>
    <path class="cls-1" d="m79.91,140.84h-20.6c-3.34,0-6.06-2.72-6.06-6.06v-12.48c-2.55-.84-5.04-1.87-7.41-3.07l-8.83,8.83c-1.15,1.15-2.67,1.78-4.29,1.78s-3.14-.63-4.29-1.78l-14.57-14.56c-1.15-1.15-1.78-2.67-1.78-4.29s.63-3.14,1.78-4.29l8.83-8.83c-1.22-2.4-2.25-4.89-3.08-7.41H7.15c-3.34,0-6.06-2.72-6.06-6.06v-20.6c0-3.34,2.72-6.06,6.06-6.06h12.47c.82-2.52,1.86-5.01,3.08-7.41l-8.83-8.83c-1.15-1.15-1.78-2.67-1.78-4.29s.63-3.14,1.78-4.29l14.57-14.57c2.36-2.36,6.21-2.36,8.58,0l8.83,8.83c2.4-1.22,4.89-2.25,7.41-3.08v-12.47c0-3.34,2.72-6.06,6.06-6.06h20.6c3.34,0,6.06,2.72,6.06,6.06v12.47c2.52.82,5.01,1.86,7.41,3.08l8.83-8.83c2.36-2.36,6.21-2.36,8.58,0l14.56,14.57c1.15,1.15,1.78,2.67,1.78,4.29s-.63,3.14-1.78,4.29l-8.83,8.83c1.22,2.4,2.25,4.89,3.08,7.41h12.47c3.34,0,6.06,2.72,6.06,6.06v20.6c0,3.34-2.72,6.06-6.06,6.06h-12.47c-.82,2.52-1.86,5.01-3.08,7.41l8.83,8.83c1.15,1.15,1.78,2.67,1.78,4.29s-.63,3.14-1.78,4.29l-14.56,14.56c-1.15,1.15-2.67,1.78-4.29,1.78s-3.14-.63-4.29-1.78l-8.83-8.83c-2.37,1.2-4.86,2.23-7.41,3.07v12.48c0,3.34-2.72,6.06-6.06,6.06Zm-34.23-22.67l.28.14c2.5,1.29,5.15,2.39,7.86,3.26l.3.1v13.11c0,2.87,2.33,5.2,5.2,5.2h20.6c2.87,0,5.2-2.33,5.2-5.2v-13.11l.3-.1c2.71-.87,5.35-1.97,7.86-3.26l.28-.14,9.27,9.27c.98.98,2.29,1.52,3.68,1.52s2.69-.54,3.68-1.52l14.56-14.56c.98-.98,1.52-2.29,1.52-3.68s-.54-2.69-1.52-3.68l-9.27-9.27.14-.28c1.31-2.54,2.41-5.18,3.26-7.86l.1-.3h13.1c2.87,0,5.2-2.33,5.2-5.2v-20.6c0-2.87-2.33-5.2-5.2-5.2h-13.1l-.1-.3c-.86-2.67-1.95-5.32-3.26-7.86l-.14-.28,9.27-9.27c.98-.98,1.52-2.29,1.52-3.68s-.54-2.69-1.52-3.68l-14.56-14.57c-2.03-2.03-5.33-2.03-7.35,0l-9.27,9.27-.28-.14c-2.54-1.31-5.19-2.41-7.86-3.26l-.3-.1v-13.1c0-2.87-2.33-5.2-5.2-5.2h-20.6c-2.87,0-5.2,2.33-5.2,5.2v13.1l-.3.1c-2.67.86-5.31,1.95-7.86,3.26l-.28.14-9.27-9.27c-2.03-2.03-5.33-2.03-7.35,0l-14.57,14.57c-.98.98-1.52,2.29-1.52,3.68s.54,2.69,1.52,3.68l9.27,9.27-.14.28c-1.31,2.54-2.41,5.18-3.26,7.86l-.1.3H7.15c-2.87,0-5.2,2.33-5.2,5.2v20.6c0,2.87,2.33,5.2,5.2,5.2h13.1l.1.3c.86,2.67,1.95,5.32,3.26,7.86l.14.28-9.27,9.27c-.98.98-1.52,2.29-1.52,3.68s.54,2.69,1.52,3.68l14.57,14.56c.98.98,2.29,1.52,3.68,1.52s2.69-.54,3.68-1.52l9.27-9.27Zm23.94-23.03c-12.58,0-22.82-10.24-22.82-22.82s10.24-22.82,22.82-22.82,22.82,10.24,22.82,22.82-10.24,22.82-22.82,22.82Zm0-44.78c-12.11,0-21.96,9.85-21.96,21.96s9.85,21.96,21.96,21.96,21.96-9.85,21.96-21.96-9.85-21.96-21.96-21.96Z"/>
    <path class="cls-1" d="m79.91,141.7h-20.6c-3.82,0-6.93-3.11-6.93-6.93v-11.86c-2.18-.74-4.32-1.63-6.37-2.64l-8.39,8.39c-1.31,1.31-3.05,2.03-4.9,2.03s-3.59-.72-4.9-2.03l-14.57-14.56c-2.7-2.7-2.7-7.1,0-9.8l8.39-8.39c-1.02-2.07-1.91-4.21-2.65-6.37H7.15c-3.82,0-6.93-3.11-6.93-6.93v-20.6c0-3.82,3.11-6.93,6.93-6.93h11.85c.74-2.16,1.63-4.3,2.65-6.37l-8.39-8.39c-2.7-2.7-2.7-7.1,0-9.8l14.57-14.57c2.7-2.7,7.1-2.7,9.8,0l8.39,8.39c2.07-1.02,4.21-1.91,6.37-2.65v-11.85c0-3.82,3.11-6.93,6.93-6.93h20.6c3.82,0,6.93,3.11,6.93,6.93v11.85c2.16.74,4.3,1.63,6.37,2.65l8.39-8.39c2.7-2.7,7.1-2.7,9.8,0l14.57,14.57c2.7,2.7,2.7,7.1,0,9.8l-8.39,8.39c1.02,2.07,1.91,4.21,2.65,6.37h11.85c3.82,0,6.93,3.11,6.93,6.93v20.6c0,3.82-3.11,6.93-6.93,6.93h-11.85c-.73,2.16-1.62,4.3-2.65,6.37l8.39,8.39c2.7,2.7,2.7,7.1,0,9.8l-14.57,14.56c-2.7,2.7-7.1,2.7-9.8,0l-8.39-8.39c-2.05,1.01-4.19,1.9-6.37,2.64v11.86c0,3.82-3.11,6.93-6.93,6.93Zm-34.07-22.48l.28.14c2.19,1.1,4.49,2.05,6.83,2.83l.29.1v12.48c0,3.34,2.72,6.06,6.06,6.06h20.6c3.34,0,6.06-2.72,6.06-6.06v-12.48l.29-.1c2.34-.78,4.64-1.74,6.83-2.83l.28-.14,8.83,8.83c1.14,1.14,2.67,1.77,4.29,1.77h0c1.62,0,3.14-.63,4.29-1.77l14.57-14.56c2.36-2.36,2.36-6.21,0-8.58l-8.83-8.83.14-.28c1.11-2.22,2.07-4.52,2.84-6.83l.1-.3h12.47c3.34,0,6.06-2.72,6.06-6.06v-20.6c0-3.34-2.72-6.06-6.06-6.06h-12.47l-.1-.29c-.77-2.32-1.73-4.62-2.84-6.83l-.14-.28,8.83-8.82c2.36-2.36,2.36-6.21,0-8.58l-14.57-14.57c-2.36-2.36-6.21-2.36-8.58,0l-8.83,8.83-.28-.14c-2.22-1.11-4.52-2.07-6.83-2.84l-.29-.1v-12.47c0-3.34-2.72-6.06-6.06-6.06h-20.6c-3.34,0-6.06,2.72-6.06,6.06v12.47l-.29.1c-2.32.77-4.62,1.73-6.83,2.84l-.28.14-8.83-8.83c-2.36-2.36-6.21-2.36-8.58,0l-14.57,14.57c-2.36,2.36-2.36,6.21,0,8.58l8.83,8.82-.14.28c-1.11,2.22-2.07,4.52-2.84,6.83l-.1.29H7.15c-3.34,0-6.06,2.72-6.06,6.06v20.6c0,3.34,2.72,6.06,6.06,6.06h12.47l.1.29c.77,2.32,1.73,4.62,2.84,6.84l.14.28-8.83,8.83c-2.36,2.36-2.36,6.21,0,8.58l14.57,14.56c1.14,1.14,2.67,1.77,4.29,1.77s3.14-.63,4.29-1.77l8.83-8.83Zm34.07,20.75h-20.6c-2.87,0-5.2-2.33-5.2-5.2v-13.11l-.3-.1c-2.71-.87-5.35-1.97-7.86-3.26l-.28-.14-9.27,9.27c-2.03,2.03-5.33,2.03-7.35,0l-14.57-14.56c-2.03-2.03-2.03-5.33,0-7.35l9.27-9.27-.14-.28c-1.31-2.54-2.41-5.19-3.26-7.86l-.1-.3H7.15c-2.87,0-5.2-2.33-5.2-5.2v-20.6c0-2.87,2.33-5.2,5.2-5.2h13.1l.1-.3c.86-2.67,1.96-5.32,3.26-7.86l.14-.28-9.27-9.27c-2.03-2.03-2.03-5.33,0-7.35l14.57-14.57c2.03-2.03,5.33-2.03,7.35,0l9.27,9.27.28-.14c2.54-1.31,5.19-2.41,7.86-3.26l.3-.1v-13.1c0-2.87,2.33-5.2,5.2-5.2h20.6c2.87,0,5.2,2.33,5.2,5.2v13.1l.3.1c2.67.86,5.31,1.95,7.86,3.26l.28.14,9.27-9.27c2.03-2.03,5.33-2.03,7.35,0l14.57,14.57c2.03,2.03,2.03,5.33,0,7.35l-9.27,9.27.14.28c1.31,2.54,2.41,5.18,3.26,7.86l.1.3h13.1c2.87,0,5.2,2.33,5.2,5.2v20.6c0,2.87-2.33,5.2-5.2,5.2h-13.1l-.1.3c-.85,2.67-1.95,5.31-3.26,7.86l-.14.28,9.27,9.27c2.03,2.03,2.03,5.33,0,7.35l-14.57,14.56c-2.03,2.03-5.33,2.03-7.35,0l-9.27-9.27-.28.14c-2.5,1.29-5.14,2.38-7.86,3.26l-.3.1v13.11c0,2.87-2.33,5.2-5.2,5.2Zm-34.4-22.86l.84.43c2.46,1.27,5.06,2.35,7.73,3.2l.9.29v13.74c0,2.39,1.95,4.34,4.34,4.34h20.6c2.39,0,4.34-1.95,4.34-4.34v-13.74l.9-.29c2.67-.86,5.27-1.94,7.73-3.2l.84-.43,9.72,9.72c1.69,1.69,4.44,1.69,6.13,0l14.57-14.56c1.69-1.69,1.69-4.44,0-6.13l-9.72-9.72.43-.84c1.29-2.5,2.37-5.1,3.21-7.72l.29-.9h13.73c2.39,0,4.34-1.94,4.34-4.33v-20.6c0-2.39-1.94-4.34-4.34-4.34h-13.73l-.29-.9c-.84-2.63-1.92-5.23-3.21-7.72l-.43-.84,9.72-9.72c1.69-1.69,1.69-4.44,0-6.13l-14.57-14.57c-1.69-1.69-4.44-1.69-6.13,0l-9.72,9.72-.84-.43c-2.5-1.29-5.1-2.37-7.72-3.21l-.9-.29v-13.73c0-2.39-1.95-4.34-4.34-4.34h-20.6c-2.39,0-4.34,1.95-4.34,4.34v13.73l-.9.29c-2.63.84-5.23,1.92-7.72,3.21l-.84.43-9.72-9.72c-1.69-1.69-4.44-1.69-6.13,0l-14.57,14.57c-1.69,1.69-1.69,4.44,0,6.13l9.72,9.72-.43.84c-1.29,2.5-2.37,5.1-3.21,7.72l-.29.9H7.15c-2.39,0-4.34,1.95-4.34,4.34v20.6c0,2.39,1.95,4.33,4.34,4.33h13.73l.29.9c.84,2.62,1.92,5.22,3.21,7.72l.43.84-9.72,9.72c-1.69,1.69-1.69,4.44,0,6.13l14.57,14.56c1.69,1.69,4.44,1.69,6.13,0l9.72-9.72Zm24.1-21.11c-13.06,0-23.69-10.63-23.69-23.69s10.63-23.69,23.69-23.69,23.69,10.63,23.69,23.69-10.63,23.69-23.69,23.69Zm0-46.51c-12.58,0-22.82,10.24-22.82,22.82s10.24,22.82,22.82,22.82,22.82-10.24,22.82-22.82-10.24-22.82-22.82-22.82Zm0,44.78c-12.11,0-21.96-9.85-21.96-21.96s9.85-21.96,21.96-21.96,21.96,9.85,21.96,21.96-9.85,21.96-21.96,21.96Zm0-43.05c-11.63,0-21.09,9.46-21.09,21.09s9.46,21.09,21.09,21.09,21.09-9.46,21.09-21.09-9.46-21.09-21.09-21.09Z"/>
  </g>
  <path class="cls-1" d="m135.57,52.23h-12.79c-.88-2.75-1.99-5.39-3.29-7.92l9.05-9.05c2.2-2.2,2.2-5.77,0-7.96l-14.57-14.57c-2.2-2.2-5.77-2.2-7.96,0l-9.05,9.05c-2.53-1.3-5.17-2.41-7.92-3.29V5.7c0-3.11-2.52-5.63-5.63-5.63h-20.6c-3.11,0-5.63,2.52-5.63,5.63v12.79c-2.75.88-5.39,1.99-7.92,3.29l-9.05-9.05c-2.2-2.2-5.77-2.2-7.96,0l-14.57,14.57c-2.2,2.2-2.2,5.77,0,7.96l9.05,9.05c-1.3,2.53-2.41,5.17-3.29,7.92h-12.79c-3.11,0-5.63,2.52-5.63,5.63v20.6c0,3.11,2.52,5.63,5.63,5.63h12.79c.88,2.75,1.99,5.39,3.29,7.92l-9.05,9.05c-2.2,2.2-2.2,5.77,0,7.96l14.57,14.57c2.2,2.2,5.77,2.2,7.96,0l9.05-9.05c2.53,1.3,5.18,2.4,7.92,3.28v12.79c0,3.11,2.52,5.63,5.63,5.63h20.6c3.11,0,5.63-2.52,5.63-5.63v-12.79c2.75-.88,5.39-1.98,7.92-3.28l9.05,9.05c2.2,2.2,5.77,2.2,7.96,0l14.57-14.57c2.2-2.2,2.2-5.77,0-7.96l-9.05-9.05c1.3-2.53,2.41-5.17,3.29-7.92h12.79c3.11,0,5.63-2.52,5.63-5.63v-20.6c0-3.11-2.52-5.63-5.63-5.63Zm-60.64,38.25c-13.8,1.09-25.22-10.34-24.14-24.14.86-10.85,9.65-19.65,20.5-20.5,13.8-1.09,25.22,10.34,24.14,24.14-.86,10.85-9.65,19.65-20.5,20.5Z"/>
</svg>