<?xml version="1.0" encoding="UTF-8"?>
<svg id="Calque_7" data-name="Calque 7" xmlns="http://www.w3.org/2000/svg" xmlns:xlink="http://www.w3.org/1999/xlink" viewBox="0 0 141.82 142.35">
  <defs>
    <style>
      .cls-1 {
        fill: #fff;
      }

      .cls-2 {
        fill: url(#Dégradé_sans_nom_11-2);
      }

      .cls-3 {
        fill: url(#Dégradé_sans_nom_11);
      }
    </style>
    <linearGradient id="Dégradé_sans_nom_11" data-name="Dégradé sans nom 11" x1="100.16" y1="122.74" x2="40.56" y2="19.5" gradientUnits="userSpaceOnUse">
      <stop offset="0" stop-color="#4b71b6"/>
      <stop offset="1" stop-color="#48b5e8"/>
    </linearGradient>
    <linearGradient id="Dégradé_sans_nom_11-2" data-name="Dégradé sans nom 11" x1="106.31" y1="132.5" x2="35.43" y2="9.74" xlink:href="#Dégradé_sans_nom_11"/>
  </defs>
  <g>
    <path class="cls-3" d="m70.36,11.5c-32.87,0-59.62,26.74-59.62,59.62s26.74,59.62,59.62,59.62,59.62-26.74,59.62-59.62S103.23,11.5,70.36,11.5Z"/>
    <path class="cls-2" d="m70.87.26C31.73.26,0,31.98,0,71.12s31.73,70.87,70.87,70.87,70.87-31.73,70.87-70.87S110,.26,70.87.26Zm-.51,134.53c-35.11,0-63.67-28.56-63.67-63.67S35.25,7.45,70.36,7.45s63.67,28.56,63.67,63.67-28.56,63.67-63.67,63.67Z"/>
  </g>
  <g>
    <path class="cls-1" d="m70.53,94.4c-.45,0-.91-.1-1.33-.3l-37.87-17.94s0,0,0,0c-.09-.05-1.73-1.04-1.73-2.83,0-.9.44-1.58.57-1.76.42-.58.94-.89,1.31-1.05l33.59-14.5s.06,0,.07.03l.47,1.1s0,.06-.03.07l-33.59,14.5c-.22.09-.52.27-.76.6-.05.08-.33.48-.33,1.01,0,.96.92,1.59,1.06,1.68l37.79,17.9c.49.23,1.05.23,1.54,0l38-17.92c.61-.29.98-.84,1.03-1.5.05-.73-.56-1.56-1.22-1.84l-33.19-14.33s-.04-.05-.03-.07l.47-1.1s.05-.04.07-.03l33.17,14.32c1.14.49,1.99,1.56,2.04,2.8s-.64,2.4-1.78,2.94l-38,17.92c-.42.2-.87.3-1.33.3Z"/>
    <path class="cls-1" d="m70.53,94.59c-.49,0-.97-.11-1.41-.32l-37.92-17.97c-.32-.2-1.8-1.24-1.79-2.98,0-.96.47-1.68.61-1.88.44-.62,1-.94,1.39-1.11l33.66-14.53.12.03c.06.03.11.07.14.14l.51,1.17-.03.12c-.03.06-.07.11-.13.14l-33.59,14.5c-.19.08-.46.24-.68.54-.05.07-.29.43-.29.9,0,.86.87,1.45.97,1.52l37.77,17.89c.44.2.94.21,1.37,0l38-17.92c.54-.26.88-.74.92-1.33.04-.61-.48-1.38-1.11-1.65l-33.19-14.33c-.13-.05-.18-.2-.13-.33l.51-1.17.11-.06c.06-.02.13-.02.19,0l33.16,14.32c1.26.54,2.11,1.71,2.16,2.97.05,1.35-.67,2.55-1.89,3.12l-38,17.92c-.45.21-.92.32-1.41.32Zm-39.11-18.61l37.86,17.93c.79.37,1.7.37,2.49,0l38-17.92c1.08-.51,1.71-1.56,1.67-2.75-.04-1.11-.8-2.14-1.92-2.63l-33.04-14.27-.36.84,33.06,14.28c.69.3,1.4,1.19,1.34,2.04-.05.74-.46,1.34-1.14,1.66l-38,17.92c-.54.25-1.16.25-1.7,0l-37.79-17.9c-.22-.14-1.18-.81-1.17-1.86,0-.59.3-1.04.37-1.12.21-.29.5-.52.84-.67l33.46-14.45-.36-.84-33.46,14.45c-.34.15-.84.44-1.23.98-.13.17-.53.81-.54,1.65,0,1.65,1.52,2.6,1.63,2.66Z"/>
  </g>
  <g>
    <path class="cls-1" d="m70.53,107.32c-.45,0-.91-.1-1.33-.3l-37.82-17.91c-1.23-.58-1.94-1.89-1.75-3.25l1.29.18c-.09.61.13,1.47,1.01,1.88l37.82,17.91c.49.23,1.05.23,1.54,0l38-17.92c.88-.42,1.1-1.28,1.01-1.88l1.29-.18c.19,1.36-.51,2.66-1.75,3.25l-38,17.92c-.42.2-.87.3-1.33.3Z"/>
    <path class="cls-1" d="m70.53,107.51c-.49,0-.96-.11-1.41-.32l-37.82-17.91c-1.31-.62-2.06-2.01-1.86-3.45l.03-.19,1.68.23-.03.19c-.08.54.12,1.31.9,1.68l37.82,17.91c.44.21.94.21,1.37,0l38-17.92c.79-.37.98-1.14.9-1.68l-.03-.19,1.68-.23.03.19c.2,1.44-.55,2.83-1.86,3.45l-38,17.92c-.44.21-.92.32-1.41.32h0Zm-40.72-21.43c-.09,1.2.56,2.33,1.66,2.85l37.82,17.91c.39.19.81.28,1.24.28h0c.43,0,.85-.09,1.24-.28l38-17.92c1.1-.52,1.75-1.65,1.66-2.85l-.91.13c.03.65-.25,1.47-1.14,1.89l-38,17.92c-.54.25-1.16.26-1.7,0l-37.82-17.91c-.89-.42-1.16-1.24-1.14-1.89l-.91-.13Z"/>
  </g>
  <g>
    <rect class="cls-1" x="29.6" y="73.47" width="1.31" height="12.98"/>
    <path class="cls-1" d="m31.1,86.64h-1.7v-13.37h1.7v13.37Zm-1.31-.39h.92v-12.59h-.92v12.59Z"/>
  </g>
  <g>
    <rect class="cls-1" x="110.33" y="73.47" width="1.31" height="12.98"/>
    <path class="cls-1" d="m111.83,86.64h-1.7v-13.37h1.7v13.37Zm-1.31-.39h.92v-12.59h-.92v12.59Z"/>
  </g>
  <g>
    <g>
      <ellipse class="cls-1" cx="48.68" cy="74.15" rx="6.39" ry="3.2"/>
      <path class="cls-1" d="m48.68,77.54c-3.69,0-6.59-1.49-6.59-3.39s2.89-3.39,6.59-3.39,6.59,1.49,6.59,3.39-2.89,3.39-6.59,3.39Zm0-6.39c-3.42,0-6.2,1.35-6.2,3s2.78,3,6.2,3,6.2-1.35,6.2-3-2.78-3-6.2-3Z"/>
    </g>
    <g>
      <path class="cls-1" d="m48.68,77.56c-3.71,0-6.61-1.5-6.61-3.41s2.9-3.41,6.61-3.41,6.61,1.5,6.61,3.41-2.9,3.41-6.61,3.41Zm0-6.39c-3.35,0-6.17,1.36-6.17,2.98s2.83,2.98,6.17,2.98,6.17-1.36,6.17-2.98-2.83-2.98-6.17-2.98Z"/>
      <path class="cls-1" d="m48.68,77.75c-3.81,0-6.8-1.58-6.8-3.61s2.99-3.61,6.8-3.61,6.8,1.58,6.8,3.61-2.99,3.61-6.8,3.61Zm0-6.83c-3.6,0-6.41,1.41-6.41,3.22s2.82,3.22,6.41,3.22,6.41-1.41,6.41-3.22-2.82-3.22-6.41-3.22Zm0,6.39c-3.51,0-6.37-1.42-6.37-3.17s2.86-3.17,6.37-3.17,6.37,1.42,6.37,3.17-2.86,3.17-6.37,3.17Zm0-5.96c-3.19,0-5.98,1.3-5.98,2.78s2.79,2.78,5.98,2.78,5.98-1.3,5.98-2.78-2.79-2.78-5.98-2.78Z"/>
    </g>
  </g>
  <g>
    <path class="cls-1" d="m70.71,80.61c-3.46,0-6.08-1.34-6.08-3.12h1.31c0,.74,1.86,1.82,4.77,1.82s4.77-1.08,4.77-1.82h1.31c0,1.78-2.61,3.12-6.08,3.12Z"/>
    <path class="cls-1" d="m70.71,80.8c-3.58,0-6.27-1.43-6.27-3.32v-.19h1.7v.19c0,.57,1.74,1.62,4.58,1.62s4.57-1.05,4.57-1.62v-.19h1.7v.19c0,1.89-2.7,3.32-6.27,3.32Zm-5.87-3.12c.19,1.57,2.65,2.73,5.87,2.73s5.68-1.16,5.87-2.73h-.94c-.26.89-2.29,1.82-4.93,1.82s-4.67-.92-4.94-1.82h-.94Z"/>
  </g>
  <g>
    <path class="cls-1" d="m70.71,55.88c-7.66,0-13.89-6.23-13.89-13.89s6.23-13.89,13.89-13.89,13.89,6.23,13.89,13.89-6.23,13.89-13.89,13.89Zm0-26.47c-6.94,0-12.58,5.64-12.58,12.58s5.64,12.58,12.58,12.58,12.58-5.64,12.58-12.58-5.64-12.58-12.58-12.58Z"/>
    <path class="cls-1" d="m70.71,56.07c-7.77,0-14.08-6.32-14.08-14.08s6.32-14.08,14.08-14.08,14.08,6.32,14.08,14.08-6.32,14.08-14.08,14.08Zm0-27.78c-7.55,0-13.69,6.14-13.69,13.69s6.14,13.69,13.69,13.69,13.69-6.14,13.69-13.69-6.14-13.69-13.69-13.69Zm0,26.47c-7.04,0-12.78-5.73-12.78-12.78s5.73-12.78,12.78-12.78,12.78,5.73,12.78,12.78-5.73,12.78-12.78,12.78Zm0-25.16c-6.83,0-12.39,5.56-12.39,12.39s5.56,12.39,12.39,12.39,12.39-5.56,12.39-12.39-5.56-12.39-12.39-12.39Z"/>
  </g>
  <g>
    <rect class="cls-1" x="64.63" y="54.55" width="1.31" height="22.93"/>
    <path class="cls-1" d="m66.13,77.68h-1.7v-23.32h1.7v23.32Zm-1.31-.39h.92v-22.55h-.92v22.55Z"/>
  </g>
  <g>
    <rect class="cls-1" x="75.48" y="54.06" width="1.31" height="23.42"/>
    <path class="cls-1" d="m76.98,77.68h-1.7v-23.81h1.7v23.81Zm-1.31-.39h.92v-23.03h-.92v23.03Z"/>
  </g>
  <path class="cls-1" d="m104.68,66.66l-1.45-.57,7.98-20.45c-2.87,2.07-8.02,5.71-11.99,8.05-1.94,1.15-3.64,1.38-5.04.71-2.36-1.14-2.84-4.44-2.86-4.58v-.1s1.52-11.65,1.52-11.65c-1.53,1.76-3.89,4.4-6.19,6.72l-1.11-1.09c3.8-3.85,7.77-8.57,7.81-8.62l1.72-2.05-2.2,16.67c.09.47.55,2.61,1.99,3.3.91.44,2.11.22,3.57-.65,5.7-3.37,13.93-9.48,14.01-9.54l2.18-1.62-9.94,25.46Z"/>
  <path class="cls-1" d="m73.25,27.37l-1.67-6.16c-.44,1.52-1.02,3.56-1.68,5.82l-.06.22-1.5-.43.06-.21c1.37-4.73,2.45-8.5,2.45-8.5l.77-2.69,3.13,11.55-1.5.41Z"/>
  <path class="cls-1" d="m38.1,66.14l-8.51-23.49,14.18,9.29c1.06.45,3.92,1.33,5.35.34.72-.5,1.05-1.48.97-2.93-.35-6.71-.62-14.31-.62-14.39l-.09-2.56,6.45,8.94-1.26.91-3.44-4.77c.11,2.81.3,7.49.53,11.79.11,2.03-.45,3.47-1.65,4.3-2.48,1.71-6.74-.15-6.92-.23l-.11-.06-10.32-6.76,6.92,19.1-1.46.53Z"/>
</svg>