<?xml version="1.0" encoding="UTF-8"?>
<svg id="Calque_4" data-name="Calque 4" xmlns="http://www.w3.org/2000/svg" viewBox="0 0 141.82 142.35">
  <defs>
    <style>
      .cls-1 {
        fill: #fff;
      }

      .cls-2 {
        fill: #3c598a;
      }
    </style>
  </defs>
  <path class="cls-2" d="m112.5,142.35H26.06c-4.27,0-7.74-3.47-7.74-7.74V14.81c0-4.27,3.47-7.74,7.74-7.74h86.45c4.27,0,7.74,3.47,7.74,7.74v119.79c0,4.27-3.47,7.74-7.74,7.74ZM26.06,10.57c-2.34,0-4.24,1.9-4.24,4.24v119.79c0,2.34,1.9,4.24,4.24,4.24h86.45c2.34,0,4.24-1.9,4.24-4.24V14.81c0-2.34-1.9-4.24-4.24-4.24H26.06Z"/>
  <g>
    <rect class="cls-2" x="26.99" y="1.75" width="98.43" height="131.78" rx="6.85" ry="6.85"/>
    <path class="cls-2" d="m119.43,135.28H32.98c-4.27,0-7.74-3.47-7.74-7.74V7.74c0-4.27,3.47-7.74,7.74-7.74h86.45c4.27,0,7.74,3.47,7.74,7.74v119.79c0,4.27-3.47,7.74-7.74,7.74ZM32.98,3.5c-2.34,0-4.24,1.9-4.24,4.24v119.79c0,2.34,1.9,4.24,4.24,4.24h86.45c2.34,0,4.24-1.9,4.24-4.24V7.74c0-2.34-1.9-4.24-4.24-4.24H32.98Z"/>
  </g>
  <path class="cls-2" d="m20.76,24.31c-.21,0-.42,0-.64,0-4.4-.13-8.81-1.59-8.74-4.13.05-1.9,2.78-3.31,6.95-3.58l.11,1.75c-3.51.23-5.29,1.33-5.31,1.88-.02.75,2.63,2.2,7.04,2.33,1.85.05,3.63-.14,5.01-.56l.5,1.68c-1.39.42-3.12.64-4.93.64Z"/>
  <path class="cls-2" d="m20.76,34.45c-.21,0-.42,0-.64,0-4.4-.13-8.81-1.59-8.74-4.13.05-1.9,2.78-3.31,6.95-3.58l.11,1.75c-3.51.23-5.29,1.33-5.31,1.88-.02.75,2.63,2.2,7.04,2.33,1.85.05,3.63-.14,5.01-.56l.5,1.68c-1.39.42-3.12.64-4.93.64Z"/>
  <path class="cls-2" d="m20.76,44.6c-.21,0-.42,0-.64,0-2.22-.06-4.32-.46-5.91-1.11-2.38-.97-2.85-2.18-2.83-3.02.05-1.9,2.78-3.31,6.95-3.58l.11,1.75c-3.51.23-5.29,1.33-5.31,1.88,0,.22.35.78,1.74,1.35,1.38.56,3.31.92,5.3.98,1.84.05,3.63-.14,5.01-.56l.5,1.68c-1.39.42-3.12.64-4.93.64Z"/>
  <path class="cls-2" d="m20.76,54.74c-.21,0-.42,0-.64,0-4.4-.13-8.81-1.59-8.74-4.13.05-1.9,2.78-3.31,6.95-3.58l.11,1.75c-3.51.23-5.29,1.33-5.31,1.88-.02.75,2.63,2.2,7.04,2.32,1.85.05,3.63-.14,5.01-.56l.5,1.68c-1.39.42-3.12.64-4.93.64Z"/>
  <path class="cls-2" d="m20.76,64.89c-.21,0-.42,0-.64,0-4.4-.13-8.81-1.59-8.74-4.13.05-1.9,2.78-3.31,6.95-3.58l.11,1.75c-3.51.23-5.29,1.33-5.31,1.88-.02.75,2.63,2.2,7.04,2.32,1.85.05,3.63-.14,5.01-.56l.5,1.68c-1.39.42-3.12.64-4.93.64Z"/>
  <path class="cls-2" d="m20.76,75.03c-.21,0-.42,0-.64,0-4.4-.13-8.81-1.59-8.74-4.13.05-1.9,2.78-3.31,6.95-3.58l.11,1.75c-3.51.23-5.29,1.33-5.31,1.88-.02.75,2.63,2.2,7.04,2.33,1.85.05,3.63-.14,5.01-.56l.5,1.68c-1.39.42-3.12.64-4.93.64Z"/>
  <path class="cls-2" d="m20.76,85.18c-.21,0-.42,0-.64,0-4.4-.13-8.81-1.59-8.74-4.13.05-1.9,2.78-3.31,6.95-3.58l.11,1.75c-3.51.23-5.29,1.33-5.31,1.88-.02.75,2.63,2.2,7.04,2.33,1.85.05,3.63-.14,5.01-.56l.5,1.68c-1.39.42-3.12.64-4.93.64Z"/>
  <path class="cls-2" d="m20.75,95.32c-.21,0-.42,0-.63,0-4.4-.13-8.81-1.59-8.74-4.13.05-1.9,2.78-3.31,6.95-3.58l.11,1.75c-3.51.23-5.29,1.33-5.31,1.88-.02.75,2.63,2.2,7.04,2.32,1.85.06,3.63-.14,5.01-.56l.5,1.68c-1.4.42-3.13.64-4.93.64Z"/>
  <path class="cls-2" d="m20.75,105.47c-.21,0-.42,0-.63,0-4.4-.13-8.81-1.59-8.74-4.13.05-1.9,2.78-3.31,6.95-3.58l.11,1.75c-3.51.23-5.29,1.33-5.31,1.88-.02.75,2.63,2.2,7.04,2.32,1.85.06,3.63-.14,5.01-.56l.5,1.68c-1.4.42-3.13.64-4.93.64Z"/>
  <path class="cls-2" d="m20.75,115.59c-.21,0-.42,0-.63,0-4.4-.13-8.81-1.59-8.74-4.13.05-1.9,2.78-3.31,6.95-3.58l.11,1.75c-3.51.23-5.29,1.33-5.31,1.88-.02.75,2.63,2.2,7.04,2.32,1.85.06,3.63-.14,5.01-.56l.5,1.68c-1.4.42-3.13.64-4.93.64Z"/>
  <rect class="cls-1" x="45.08" y="14.55" width="64.07" height="4.15" rx="2.08" ry="2.08"/>
  <rect class="cls-1" x="59.86" y="23.15" width="34.5" height="2.2" rx="1.1" ry="1.1"/>
  <rect class="cls-1" x="45.08" y="75.55" width="64.07" height="28.93" rx="6.63" ry="6.63"/>
</svg>