<?xml version="1.0" encoding="UTF-8"?>
<svg id="Histoire" xmlns="http://www.w3.org/2000/svg" xmlns:xlink="http://www.w3.org/1999/xlink" viewBox="0 0 141.82 142.35">
  <defs>
    <style>
      .cls-1 {
        fill: url(#Dégradé_sans_nom_57-2);
      }

      .cls-2 {
        fill: url(#Dégradé_sans_nom_57);
      }

      .cls-3 {
        fill: url(#Dégradé_sans_nom_57-3);
      }
    </style>
    <linearGradient id="Dégradé_sans_nom_57" data-name="Dégradé sans nom 57" x1="35.11" y1="12.51" x2="104.22" y2="132.21" gradientUnits="userSpaceOnUse">
      <stop offset="0" stop-color="#3fb3e8"/>
      <stop offset="1" stop-color="#4973b8"/>
    </linearGradient>
    <linearGradient id="Dégradé_sans_nom_57-2" data-name="Dégradé sans nom 57" x1="34.67" y1="11.76" x2="104.65" y2="132.96" xlink:href="#Dégradé_sans_nom_57"/>
    <linearGradient id="Dégradé_sans_nom_57-3" data-name="Dégradé sans nom 57" x1="38.82" y1="8.73" x2="107.49" y2="127.68" xlink:href="#Dégradé_sans_nom_57"/>
  </defs>
  <g>
    <path class="cls-2" d="m79.97,140.93h-20.61c-3.35,0-6.07-2.72-6.07-6.07v-12.49c-2.55-.84-5.04-1.87-7.41-3.07l-8.83,8.83c-1.15,1.15-2.67,1.78-4.29,1.78s-3.14-.63-4.29-1.78l-14.58-14.58c-1.15-1.15-1.78-2.67-1.78-4.29s.63-3.14,1.78-4.29l8.83-8.83c-1.22-2.4-2.26-4.89-3.08-7.41H7.16c-3.35,0-6.07-2.72-6.07-6.07v-20.61c0-3.35,2.72-6.07,6.07-6.07h12.48c.82-2.52,1.86-5.01,3.08-7.41l-8.83-8.83c-1.15-1.15-1.78-2.67-1.78-4.29s.63-3.14,1.78-4.29l14.58-14.58c2.37-2.37,6.21-2.37,8.58,0l8.83,8.83c2.4-1.22,4.89-2.26,7.41-3.08v-12.48c0-3.35,2.72-6.07,6.07-6.07h20.61c3.35,0,6.07,2.72,6.07,6.07v12.48c2.52.82,5.01,1.86,7.41,3.08l8.83-8.83c2.37-2.37,6.21-2.37,8.58,0l14.57,14.58c1.15,1.15,1.78,2.67,1.78,4.29s-.63,3.14-1.78,4.29l-8.83,8.83c1.22,2.4,2.25,4.89,3.08,7.41h12.48c3.35,0,6.07,2.72,6.07,6.07v20.61c0,3.35-2.72,6.07-6.07,6.07h-12.48c-.82,2.52-1.86,5.01-3.08,7.41l8.83,8.83c1.15,1.15,1.78,2.67,1.78,4.29s-.63,3.14-1.78,4.29l-14.57,14.58c-1.15,1.15-2.67,1.78-4.29,1.78s-3.14-.63-4.29-1.78l-8.83-8.83c-2.37,1.2-4.86,2.24-7.41,3.07v12.49c0,3.35-2.72,6.07-6.07,6.07Zm-34.26-22.68l.28.14c2.51,1.29,5.15,2.39,7.86,3.26l.3.1v13.12c0,2.87,2.33,5.2,5.2,5.2h20.61c2.87,0,5.2-2.33,5.2-5.2v-13.12l.3-.1c2.71-.87,5.36-1.97,7.86-3.26l.28-.14,9.28,9.28c.98.98,2.29,1.52,3.68,1.52s2.7-.54,3.68-1.52l14.57-14.58c.98-.98,1.52-2.29,1.52-3.68s-.54-2.7-1.52-3.68l-9.28-9.28.14-.28c1.31-2.54,2.41-5.19,3.27-7.86l.1-.3h13.11c2.87,0,5.2-2.33,5.2-5.2v-20.61c0-2.87-2.33-5.2-5.2-5.2h-13.11l-.1-.3c-.86-2.68-1.96-5.32-3.27-7.86l-.14-.28,9.28-9.28c.98-.98,1.52-2.29,1.52-3.68s-.54-2.7-1.52-3.68l-14.57-14.58c-2.03-2.03-5.33-2.03-7.36,0l-9.28,9.28-.28-.14c-2.54-1.31-5.19-2.41-7.86-3.27l-.3-.1v-13.11c0-2.87-2.33-5.2-5.2-5.2h-20.61c-2.87,0-5.2,2.33-5.2,5.2v13.11l-.3.1c-2.67.86-5.32,1.96-7.86,3.27l-.28.14-9.28-9.28c-2.03-2.03-5.33-2.03-7.36,0l-14.58,14.58c-.98.98-1.52,2.29-1.52,3.68s.54,2.7,1.52,3.68l9.28,9.28-.14.28c-1.31,2.54-2.41,5.19-3.27,7.86l-.1.3H7.16c-2.87,0-5.2,2.33-5.2,5.2v20.61c0,2.87,2.33,5.2,5.2,5.2h13.11l.1.3c.86,2.67,1.96,5.32,3.27,7.86l.14.28-9.28,9.28c-.98.98-1.52,2.29-1.52,3.68s.54,2.7,1.52,3.68l14.58,14.58c.98.98,2.29,1.52,3.68,1.52s2.7-.54,3.68-1.52l9.28-9.28Zm23.95-23.05c-12.59,0-22.84-10.24-22.84-22.84s10.24-22.84,22.84-22.84,22.84,10.24,22.84,22.84-10.24,22.84-22.84,22.84Zm0-44.81c-12.12,0-21.97,9.86-21.97,21.97s9.86,21.97,21.97,21.97,21.97-9.86,21.97-21.97-9.86-21.97-21.97-21.97Z"/>
    <path class="cls-1" d="m79.97,141.8h-20.61c-3.82,0-6.93-3.11-6.93-6.93v-11.87c-2.18-.74-4.33-1.63-6.38-2.64l-8.39,8.39c-1.31,1.31-3.05,2.03-4.9,2.03s-3.59-.72-4.9-2.03l-14.58-14.57c-2.7-2.7-2.7-7.1,0-9.8l8.39-8.39c-1.02-2.07-1.91-4.22-2.65-6.38H7.16c-3.82,0-6.93-3.11-6.93-6.93v-20.61c0-3.82,3.11-6.93,6.93-6.93h11.86c.74-2.16,1.63-4.3,2.65-6.38l-8.39-8.39c-2.7-2.7-2.7-7.1,0-9.8l14.58-14.58c2.7-2.7,7.1-2.7,9.8,0l8.39,8.39c2.07-1.02,4.22-1.91,6.38-2.65v-11.86c0-3.82,3.11-6.93,6.93-6.93h20.61c3.82,0,6.93,3.11,6.93,6.93v11.86c2.16.74,4.3,1.63,6.38,2.65l8.39-8.39c2.7-2.7,7.1-2.7,9.8,0l14.58,14.58c2.7,2.7,2.7,7.1,0,9.8l-8.39,8.39c1.02,2.07,1.91,4.22,2.65,6.38h11.86c3.82,0,6.93,3.11,6.93,6.93v20.61c0,3.82-3.11,6.93-6.93,6.93h-11.86c-.74,2.16-1.63,4.3-2.65,6.38l8.39,8.39c2.7,2.7,2.7,7.1,0,9.8l-14.58,14.57c-2.7,2.7-7.1,2.7-9.8,0l-8.39-8.39c-2.05,1.01-4.19,1.9-6.38,2.64v11.87c0,3.82-3.11,6.93-6.93,6.93Zm-34.09-22.49l.28.14c2.19,1.1,4.49,2.05,6.84,2.84l.3.1v12.49c0,3.35,2.72,6.07,6.07,6.07h20.61c3.35,0,6.07-2.72,6.07-6.07v-12.49l.3-.1c2.35-.79,4.65-1.74,6.84-2.84l.28-.14,8.83,8.83c1.14,1.14,2.67,1.77,4.29,1.77h0c1.62,0,3.15-.63,4.29-1.77l14.58-14.57c2.36-2.37,2.36-6.22,0-8.58l-8.83-8.83.14-.28c1.11-2.22,2.07-4.52,2.84-6.84l.1-.3h12.48c3.35,0,6.07-2.72,6.07-6.07v-20.61c0-3.35-2.72-6.07-6.07-6.07h-12.48l-.1-.3c-.78-2.32-1.73-4.62-2.84-6.84l-.14-.28,8.83-8.83c2.36-2.37,2.36-6.22,0-8.58l-14.58-14.58c-2.37-2.36-6.21-2.36-8.58,0l-8.83,8.83-.28-.14c-2.22-1.11-4.52-2.07-6.84-2.84l-.3-.1v-12.48c0-3.35-2.72-6.07-6.07-6.07h-20.61c-3.35,0-6.07,2.72-6.07,6.07v12.48l-.3.1c-2.32.78-4.62,1.73-6.84,2.84l-.28.14-8.83-8.83c-2.37-2.37-6.22-2.37-8.58,0l-14.58,14.58c-2.37,2.37-2.37,6.22,0,8.58l8.83,8.83-.14.28c-1.11,2.22-2.07,4.52-2.84,6.84l-.1.3H7.16c-3.35,0-6.07,2.72-6.07,6.07v20.61c0,3.35,2.72,6.07,6.07,6.07h12.48l.1.3c.78,2.32,1.73,4.62,2.84,6.84l.14.28-8.83,8.83c-2.37,2.37-2.37,6.22,0,8.58l14.58,14.57c1.14,1.14,2.67,1.77,4.29,1.77s3.15-.63,4.29-1.77l8.83-8.83Zm34.09,20.76h-20.61c-2.87,0-5.2-2.33-5.2-5.2v-13.12l-.3-.1c-2.71-.87-5.36-1.97-7.86-3.26l-.28-.14-9.28,9.28c-2.03,2.03-5.33,2.03-7.36,0l-14.58-14.57c-2.03-2.03-2.03-5.33,0-7.36l9.28-9.28-.14-.28c-1.31-2.55-2.41-5.19-3.27-7.86l-.1-.3H7.16c-2.87,0-5.2-2.33-5.2-5.2v-20.61c0-2.87,2.33-5.2,5.2-5.2h13.11l.1-.3c.86-2.68,1.96-5.32,3.27-7.86l.14-.28-9.28-9.28c-2.03-2.03-2.03-5.33,0-7.36l14.58-14.58c2.03-2.03,5.33-2.03,7.36,0l9.28,9.28.28-.14c2.54-1.31,5.19-2.41,7.86-3.27l.3-.1v-13.11c0-2.87,2.33-5.2,5.2-5.2h20.61c2.87,0,5.2,2.33,5.2,5.2v13.11l.3.1c2.67.86,5.32,1.96,7.86,3.27l.28.14,9.28-9.28c2.03-2.03,5.33-2.03,7.36,0l14.58,14.58c2.03,2.03,2.03,5.33,0,7.36l-9.28,9.28.14.28c1.31,2.54,2.41,5.18,3.27,7.86l.1.3h13.11c2.87,0,5.2,2.33,5.2,5.2v20.61c0,2.87-2.33,5.2-5.2,5.2h-13.11l-.1.3c-.86,2.67-1.95,5.31-3.27,7.86l-.14.28,9.28,9.28c2.03,2.03,2.03,5.33,0,7.36l-14.58,14.57c-2.03,2.03-5.33,2.03-7.36,0l-9.28-9.28-.28.14c-2.5,1.29-5.15,2.39-7.86,3.26l-.3.1v13.12c0,2.87-2.33,5.2-5.2,5.2Zm-34.42-22.88l.84.43c2.46,1.27,5.07,2.35,7.73,3.2l.9.29v13.75c0,2.39,1.95,4.34,4.34,4.34h20.61c2.39,0,4.34-1.95,4.34-4.34v-13.75l.9-.29c2.67-.86,5.27-1.94,7.73-3.2l.84-.43,9.72,9.72c1.69,1.69,4.44,1.69,6.14,0l14.58-14.57c1.69-1.69,1.69-4.44,0-6.14l-9.73-9.72.43-.84c1.29-2.5,2.37-5.11,3.21-7.73l.29-.9h13.74c2.39,0,4.34-1.95,4.34-4.34v-20.61c0-2.39-1.95-4.34-4.34-4.34h-13.74l-.29-.9c-.84-2.63-1.92-5.23-3.21-7.73l-.43-.84,9.73-9.72c1.69-1.69,1.69-4.44,0-6.14l-14.58-14.58c-1.69-1.69-4.44-1.69-6.14,0l-9.72,9.72-.84-.43c-2.5-1.29-5.1-2.37-7.73-3.21l-.9-.29v-13.74c0-2.39-1.95-4.34-4.34-4.34h-20.61c-2.39,0-4.34,1.95-4.34,4.34v13.74l-.9.29c-2.63.84-5.23,1.92-7.73,3.21l-.84.43-9.72-9.72c-1.69-1.69-4.44-1.69-6.14,0l-14.58,14.58c-1.69,1.69-1.69,4.44,0,6.14l9.72,9.72-.43.84c-1.29,2.5-2.37,5.1-3.21,7.73l-.29.9H7.16c-2.39,0-4.34,1.95-4.34,4.34v20.61c0,2.39,1.95,4.34,4.34,4.34h13.74l.29.9c.84,2.63,1.92,5.23,3.21,7.73l.43.84-9.72,9.72c-1.69,1.69-1.69,4.44,0,6.14l14.58,14.57c1.69,1.69,4.44,1.69,6.14,0l9.72-9.72Zm24.12-21.13c-13.07,0-23.7-10.63-23.7-23.7s10.63-23.7,23.7-23.7,23.7,10.63,23.7,23.7-10.63,23.7-23.7,23.7Zm0-46.54c-12.59,0-22.84,10.24-22.84,22.84s10.24,22.84,22.84,22.84,22.84-10.24,22.84-22.84-10.24-22.84-22.84-22.84Zm0,44.81c-12.12,0-21.97-9.86-21.97-21.97s9.86-21.97,21.97-21.97,21.97,9.86,21.97,21.97-9.86,21.97-21.97,21.97Zm0-43.08c-11.64,0-21.11,9.47-21.11,21.11s9.47,21.11,21.11,21.11,21.11-9.47,21.11-21.11-9.47-21.11-21.11-21.11Z"/>
  </g>
  <path class="cls-3" d="m135.66,52.26h-12.79c-.88-2.75-1.99-5.4-3.29-7.93l9.05-9.05c2.2-2.2,2.2-5.77,0-7.97l-14.58-14.58c-2.2-2.2-5.77-2.2-7.97,0l-9.05,9.05c-2.53-1.3-5.18-2.41-7.93-3.29V5.7c0-3.11-2.52-5.64-5.64-5.64h-20.61c-3.11,0-5.64,2.52-5.64,5.64v12.79c-2.75.88-5.4,1.99-7.93,3.29l-9.05-9.05c-2.2-2.2-5.77-2.2-7.97,0l-14.58,14.58c-2.2,2.2-2.2,5.77,0,7.97l9.05,9.05c-1.3,2.53-2.41,5.18-3.29,7.93h-12.79c-3.11,0-5.64,2.52-5.64,5.64v20.61c0,3.11,2.52,5.64,5.64,5.64h12.79c.88,2.75,1.99,5.4,3.29,7.93l-9.05,9.05c-2.2,2.2-2.2,5.77,0,7.97l14.58,14.58c2.2,2.2,5.77,2.2,7.97,0l9.05-9.05c2.53,1.3,5.18,2.4,7.93,3.29v12.8c0,3.11,2.52,5.64,5.64,5.64h20.61c3.11,0,5.64-2.52,5.64-5.64v-12.8c2.75-.88,5.4-1.98,7.93-3.29l9.05,9.05c2.2,2.2,5.77,2.2,7.97,0l14.58-14.58c2.2-2.2,2.2-5.77,0-7.97l-9.05-9.05c1.3-2.53,2.41-5.18,3.29-7.93h12.79c3.11,0,5.64-2.52,5.64-5.64v-20.61c0-3.11-2.52-5.64-5.64-5.64Zm-60.68,38.28c-13.81,1.09-25.24-10.35-24.15-24.15.86-10.86,9.66-19.66,20.52-20.52,13.81-1.09,25.24,10.35,24.15,24.15-.86,10.86-9.66,19.66-20.52,20.52Z"/>
</svg>