<?xml version="1.0" encoding="UTF-8"?>
<svg id="Calque_3" data-name="Calque 3" xmlns="http://www.w3.org/2000/svg" xmlns:xlink="http://www.w3.org/1999/xlink" viewBox="0 0 141.82 142.35">
  <defs>
    <style>
      .cls-1 {
        fill: #fff;
      }

      .cls-2 {
        fill: url(#Dégradé_sans_nom_57-9);
      }

      .cls-3 {
        fill: url(#Dégradé_sans_nom_57-7);
      }

      .cls-4 {
        fill: url(#Dégradé_sans_nom_57-2);
      }

      .cls-5 {
        fill: url(#Dégradé_sans_nom_57-10);
      }

      .cls-6 {
        fill: url(#Dégradé_sans_nom_57-6);
      }

      .cls-7 {
        fill: url(#Dégradé_sans_nom_57-4);
      }

      .cls-8 {
        fill: url(#Dégradé_sans_nom_57-12);
      }

      .cls-9 {
        fill: url(#Dégradé_sans_nom_57-8);
      }

      .cls-10 {
        fill: url(#Dégradé_sans_nom_57-13);
      }

      .cls-11 {
        fill: url(#Dégradé_sans_nom_57-11);
      }

      .cls-12 {
        fill: url(#Dégradé_sans_nom_57);
      }

      .cls-13 {
        fill: url(#Dégradé_sans_nom_57-5);
      }

      .cls-14 {
        fill: url(#Dégradé_sans_nom_57-3);
      }
    </style>
    <linearGradient id="Dégradé_sans_nom_57" data-name="Dégradé sans nom 57" x1="28.84" y1="4.41" x2="109.72" y2="144.49" gradientUnits="userSpaceOnUse">
      <stop offset="0" stop-color="#3fb3e8"/>
      <stop offset="1" stop-color="#4973b8"/>
    </linearGradient>
    <linearGradient id="Dégradé_sans_nom_57-2" data-name="Dégradé sans nom 57" x1="30.77" y1="2.57" x2="121.58" y2="132.25" xlink:href="#Dégradé_sans_nom_57"/>
    <linearGradient id="Dégradé_sans_nom_57-3" data-name="Dégradé sans nom 57" x1="35.74" y1="-2.63" x2="116.61" y2="137.45" xlink:href="#Dégradé_sans_nom_57"/>
    <linearGradient id="Dégradé_sans_nom_57-4" data-name="Dégradé sans nom 57" x1="15.7" y1="16.54" x2="21.33" y2="26.28" xlink:href="#Dégradé_sans_nom_57"/>
    <linearGradient id="Dégradé_sans_nom_57-5" data-name="Dégradé sans nom 57" x1="15.7" y1="26.68" x2="21.33" y2="36.43" xlink:href="#Dégradé_sans_nom_57"/>
    <linearGradient id="Dégradé_sans_nom_57-6" data-name="Dégradé sans nom 57" x1="15.7" y1="36.83" x2="21.33" y2="46.57" xlink:href="#Dégradé_sans_nom_57"/>
    <linearGradient id="Dégradé_sans_nom_57-7" data-name="Dégradé sans nom 57" x1="15.7" y1="46.97" x2="21.33" y2="56.71" xlink:href="#Dégradé_sans_nom_57"/>
    <linearGradient id="Dégradé_sans_nom_57-8" data-name="Dégradé sans nom 57" x1="15.7" y1="57.12" x2="21.33" y2="66.86" xlink:href="#Dégradé_sans_nom_57"/>
    <linearGradient id="Dégradé_sans_nom_57-9" data-name="Dégradé sans nom 57" x1="15.7" y1="67.26" x2="21.33" y2="77" xlink:href="#Dégradé_sans_nom_57"/>
    <linearGradient id="Dégradé_sans_nom_57-10" data-name="Dégradé sans nom 57" x1="15.7" y1="77.41" x2="21.33" y2="87.15" xlink:href="#Dégradé_sans_nom_57"/>
    <linearGradient id="Dégradé_sans_nom_57-11" data-name="Dégradé sans nom 57" x1="15.7" y1="87.55" x2="21.33" y2="97.29" xlink:href="#Dégradé_sans_nom_57"/>
    <linearGradient id="Dégradé_sans_nom_57-12" data-name="Dégradé sans nom 57" x1="15.7" y1="97.69" x2="21.33" y2="107.44" xlink:href="#Dégradé_sans_nom_57"/>
    <linearGradient id="Dégradé_sans_nom_57-13" data-name="Dégradé sans nom 57" x1="15.7" y1="107.84" x2="21.33" y2="117.58" xlink:href="#Dégradé_sans_nom_57"/>
  </defs>
  <path class="cls-12" d="m112.32,141.8H26.24c-4.25,0-7.71-3.46-7.71-7.71V14.81c0-4.25,3.46-7.71,7.71-7.71h86.07c4.25,0,7.71,3.46,7.71,7.71v119.27c0,4.25-3.46,7.71-7.71,7.71ZM26.24,10.59c-2.33,0-4.22,1.89-4.22,4.22v119.27c0,2.33,1.89,4.22,4.22,4.22h86.07c2.33,0,4.22-1.89,4.22-4.22V14.81c0-2.33-1.89-4.22-4.22-4.22H26.24Z"/>
  <g>
    <rect class="cls-4" x="27.17" y="1.81" width="98.01" height="131.21" rx="6.85" ry="6.85"/>
    <path class="cls-14" d="m119.21,134.76H33.14c-4.25,0-7.71-3.46-7.71-7.71V7.77C25.43,3.52,28.89.06,33.14.06h86.07c4.25,0,7.71,3.46,7.71,7.71v119.27c0,4.25-3.46,7.71-7.71,7.71ZM33.14,3.55c-2.33,0-4.22,1.89-4.22,4.22v119.27c0,2.33,1.89,4.22,4.22,4.22h86.07c2.33,0,4.22-1.89,4.22-4.22V7.77c0-2.33-1.89-4.22-4.22-4.22H33.14Z"/>
  </g>
  <g>
    <path class="cls-7" d="m20.97,24.29c-.21,0-.42,0-.63,0-4.38-.13-8.77-1.58-8.7-4.11.05-1.9,2.77-3.29,6.92-3.56l.11,1.74c-3.49.23-5.27,1.32-5.29,1.87-.02.74,2.62,2.19,7.01,2.32,1.84.05,3.61-.14,4.99-.56l.5,1.67c-1.39.41-3.11.64-4.91.64Z"/>
    <path class="cls-13" d="m20.97,34.44c-.21,0-.42,0-.63,0-4.38-.13-8.77-1.58-8.7-4.11.05-1.9,2.77-3.29,6.92-3.56l.11,1.74c-3.49.23-5.27,1.32-5.29,1.87-.02.74,2.62,2.19,7.01,2.32,1.84.05,3.61-.14,4.99-.56l.5,1.67c-1.39.41-3.11.64-4.91.64Z"/>
    <path class="cls-6" d="m20.97,44.58c-.21,0-.42,0-.63,0-2.21-.06-4.3-.46-5.88-1.1-2.37-.97-2.84-2.17-2.82-3,.05-1.9,2.77-3.29,6.92-3.56l.11,1.74c-3.49.23-5.27,1.32-5.29,1.87,0,.22.35.77,1.73,1.34,1.38.56,3.3.92,5.27.97,1.84.05,3.61-.14,4.99-.55l.5,1.67c-1.39.41-3.11.64-4.91.64Z"/>
    <path class="cls-3" d="m20.97,54.73c-.21,0-.42,0-.63,0-4.38-.13-8.77-1.58-8.7-4.11.05-1.9,2.77-3.29,6.92-3.56l.11,1.74c-3.49.23-5.27,1.32-5.29,1.87-.02.74,2.62,2.19,7.01,2.31,1.85.05,3.61-.14,4.99-.55l.5,1.67c-1.39.41-3.11.64-4.91.64Z"/>
    <path class="cls-9" d="m20.97,64.87c-.21,0-.42,0-.63,0-4.38-.13-8.77-1.58-8.7-4.11.05-1.9,2.77-3.29,6.92-3.56l.11,1.74c-3.49.23-5.27,1.32-5.29,1.87-.02.74,2.62,2.19,7.01,2.31,1.84.05,3.61-.14,4.99-.56l.5,1.67c-1.39.41-3.11.64-4.91.64Z"/>
    <path class="cls-2" d="m20.97,75.01c-.21,0-.42,0-.63,0-4.38-.13-8.77-1.58-8.7-4.11.05-1.9,2.77-3.29,6.92-3.56l.11,1.74c-3.49.23-5.27,1.32-5.29,1.87-.02.74,2.62,2.19,7.01,2.32,1.84.05,3.61-.14,4.99-.56l.5,1.67c-1.39.41-3.11.64-4.91.64Z"/>
    <path class="cls-5" d="m20.97,85.16c-.21,0-.42,0-.63,0-4.38-.13-8.77-1.58-8.7-4.11.05-1.9,2.77-3.29,6.92-3.56l.11,1.74c-3.49.23-5.27,1.32-5.29,1.87-.02.74,2.62,2.19,7.01,2.32,1.84.05,3.61-.14,4.99-.56l.5,1.67c-1.39.41-3.11.64-4.91.64Z"/>
    <path class="cls-11" d="m20.96,95.3c-.21,0-.42,0-.63,0-4.38-.13-8.77-1.58-8.7-4.11.05-1.89,2.77-3.29,6.92-3.56l.11,1.74c-3.49.23-5.27,1.32-5.29,1.87-.02.74,2.62,2.19,7.01,2.31,1.84.06,3.61-.14,4.99-.55l.5,1.67c-1.39.41-3.11.64-4.91.64Z"/>
    <path class="cls-8" d="m20.96,105.45c-.21,0-.42,0-.63,0-4.38-.13-8.77-1.58-8.7-4.11.05-1.89,2.77-3.29,6.92-3.56l.11,1.74c-3.49.23-5.27,1.32-5.29,1.87-.02.74,2.62,2.19,7.01,2.31,1.84.06,3.61-.14,4.99-.55l.5,1.67c-1.39.41-3.11.64-4.91.64Z"/>
    <path class="cls-10" d="m20.96,115.59c-.21,0-.42,0-.63,0-4.38-.13-8.77-1.58-8.7-4.11.05-1.89,2.77-3.29,6.92-3.56l.11,1.74c-3.49.23-5.27,1.32-5.29,1.87-.02.74,2.62,2.19,7.01,2.31,1.84.06,3.61-.14,4.99-.55l.5,1.67c-1.39.41-3.11.64-4.91.64Z"/>
  </g>
  <rect class="cls-1" x="45.35" y="14.94" width="63.8" height="4.13" rx="2.07" ry="2.07"/>
  <rect class="cls-1" x="60.08" y="23.5" width="34.35" height="2.2" rx="1.1" ry="1.1"/>
  <rect class="cls-1" x="45.35" y="75.67" width="63.8" height="28.8" rx="6.63" ry="6.63"/>
</svg>